HIERARCHY
ROOT Hips
{
	OFFSET 0.000000 100.481300 0.000000
	CHANNELS 6 Xposition Yposition Zposition Xrotation Yrotation Zrotation 
	JOINT Spine
	{
		OFFSET -0.279200 12.230698 -2.892100
		CHANNELS 3 Xrotation Yrotation Zrotation
		JOINT Spine1
		{
			OFFSET -0.232667 10.192268 -1.242267
			CHANNELS 3 Xrotation Yrotation Zrotation
			JOINT Spine1_split
			{
				OFFSET -0.232667 10.192268 -1.242267
				CHANNELS 3 Xrotation Yrotation Zrotation
				JOINT Spine2
				{
					OFFSET -0.232667 10.192268 -1.242267
					CHANNELS 3 Xrotation Yrotation Zrotation
					JOINT Neck
					{
						OFFSET -0.418800 17.814194 8.416900
						CHANNELS 3 Xrotation Yrotation Zrotation
						JOINT Head
						{
							OFFSET 0.000000 7.031097 3.806800
							CHANNELS 3 Xrotation Yrotation Zrotation
							JOINT HeadTop_End
							{
								OFFSET 0.000000 24.646606 12.978600
								CHANNELS 3 Xrotation Yrotation Zrotation
								End Site
								{
									OFFSET 0.000000 0.000000 0.000000
								}
							}
						}
					}
					JOINT LeftShoulder
					{
						OFFSET 8.476499 7.247704 -3.868750
						CHANNELS 3 Xrotation Yrotation Zrotation
						JOINT LeftShoulder_split
						{
							OFFSET 8.476499 7.247704 -3.868750
							CHANNELS 3 Xrotation Yrotation Zrotation
							JOINT LeftArm
							{
								OFFSET 9.308998 -2.777710 0.208600
								CHANNELS 3 Xrotation Yrotation Zrotation
								JOINT LeftForeArm
								{
									OFFSET 29.972298 0.000000 0.000000
									CHANNELS 3 Xrotation Yrotation Zrotation
									JOINT LeftHand
									{
										OFFSET 26.026505 0.000000 0.000000
										CHANNELS 3 Xrotation Yrotation Zrotation
										JOINT LeftHandThumb1
										{
											OFFSET 12.240501 -7.147949 9.207150
											CHANNELS 3 Xrotation Yrotation Zrotation
											JOINT LeftHandThumb2
											{
												OFFSET 4.138618 -2.389435 2.389433
												CHANNELS 3 Xrotation Yrotation Zrotation
												JOINT LeftHandThumb3
												{
													OFFSET 2.726913 -1.574387 1.574386
													CHANNELS 3 Xrotation Yrotation Zrotation
													JOINT LeftHandThumb4
													{
														OFFSET 3.941010 -2.275345 2.275342
														CHANNELS 3 Xrotation Yrotation Zrotation
														End Site
														{
															OFFSET 0.000000 0.000000 0.000000
														}
													}
												}
											}
										}
										JOINT LeftHandIndex1
										{
											OFFSET 24.424698 -1.985611 5.953459
											CHANNELS 3 Xrotation Yrotation Zrotation
											JOINT LeftHandIndex2
											{
												OFFSET 6.426697 0.000000 0.000000
												CHANNELS 3 Xrotation Yrotation Zrotation
												JOINT LeftHandIndex3
												{
													OFFSET 5.337898 0.000000 0.000000
													CHANNELS 3 Xrotation Yrotation Zrotation
													JOINT LeftHandIndex4
													{
														OFFSET 4.409401 0.000000 0.000000
														CHANNELS 3 Xrotation Yrotation Zrotation
														End Site
														{
															OFFSET 0.000000 0.000000 0.000000
														}
													}
												}
											}
										}
										JOINT LeftHandMiddle1
										{
											OFFSET 23.810104 0.000000 0.000000
											CHANNELS 3 Xrotation Yrotation Zrotation
											JOINT LeftHandMiddle2
											{
												OFFSET 7.176498 0.000000 0.000000
												CHANNELS 3 Xrotation Yrotation Zrotation
												JOINT LeftHandMiddle3
												{
													OFFSET 6.774902 0.000000 0.000000
													CHANNELS 3 Xrotation Yrotation Zrotation
													JOINT LeftHandMiddle4
													{
														OFFSET 5.403328 0.000000 0.000000
														CHANNELS 3 Xrotation Yrotation Zrotation
														End Site
														{
															OFFSET 0.000000 0.000000 0.000000
														}
													}
												}
											}
										}
										JOINT LeftHandRing1
										{
											OFFSET 22.908401 -0.839279 -6.020567
											CHANNELS 3 Xrotation Yrotation Zrotation
											JOINT LeftHandRing2
											{
												OFFSET 6.337502 0.000000 0.000000
												CHANNELS 3 Xrotation Yrotation Zrotation
												JOINT LeftHandRing3
												{
													OFFSET 5.779297 0.000000 0.000000
													CHANNELS 3 Xrotation Yrotation Zrotation
													JOINT LeftHandRing4
													{
														OFFSET 4.965698 0.000000 0.000000
														CHANNELS 3 Xrotation Yrotation Zrotation
														End Site
														{
															OFFSET 0.000000 0.000000 0.000000
														}
													}
												}
											}
										}
										JOINT LeftHandPinky1
										{
											OFFSET 20.037003 -1.530319 -10.950146
											CHANNELS 3 Xrotation Yrotation Zrotation
											JOINT LeftHandPinky2
											{
												OFFSET 5.254700 0.000000 0.000000
												CHANNELS 3 Xrotation Yrotation Zrotation
												JOINT LeftHandPinky3
												{
													OFFSET 4.810204 0.000000 0.000000
													CHANNELS 3 Xrotation Yrotation Zrotation
													JOINT LeftHandPinky4
													{
														OFFSET 3.647202 0.000000 0.000000
														CHANNELS 3 Xrotation Yrotation Zrotation
														End Site
														{
															OFFSET 0.000000 0.000000 0.000000
														}
													}
												}
											}
										}
									}
								}
							}
						}
					}
					JOINT RightShoulder
					{
						OFFSET -7.570500 7.247704 -3.868750
						CHANNELS 3 Xrotation Yrotation Zrotation
						JOINT RightShoulder_split
						{
							OFFSET -7.570500 7.247704 -3.868750
							CHANNELS 3 Xrotation Yrotation Zrotation
							JOINT RightArm
							{
								OFFSET -9.308998 -2.777710 0.208500
								CHANNELS 3 Xrotation Yrotation Zrotation
								JOINT RightForeArm
								{
									OFFSET -29.972300 0.000000 0.000000
									CHANNELS 3 Xrotation Yrotation Zrotation
									JOINT RightHand
									{
										OFFSET -26.026505 0.000000 0.000000
										CHANNELS 3 Xrotation Yrotation Zrotation
										JOINT RightHandThumb1
										{
											OFFSET -12.240601 -7.148026 9.207092
											CHANNELS 3 Xrotation Yrotation Zrotation
											JOINT RightHandThumb2
											{
												OFFSET -4.138618 -2.389435 2.389433
												CHANNELS 3 Xrotation Yrotation Zrotation
												JOINT RightHandThumb3
												{
													OFFSET -2.726974 -1.574417 1.574421
													CHANNELS 3 Xrotation Yrotation Zrotation
													JOINT RightHandThumb4
													{
														OFFSET -3.941010 -2.275345 2.275343
														CHANNELS 3 Xrotation Yrotation Zrotation
														End Site
														{
															OFFSET 0.000000 0.000000 0.000000
														}
													}
												}
											}
										}
										JOINT RightHandIndex1
										{
											OFFSET -24.424698 -1.985657 5.953444
											CHANNELS 3 Xrotation Yrotation Zrotation
											JOINT RightHandIndex2
											{
												OFFSET -6.426697 0.000000 0.000000
												CHANNELS 3 Xrotation Yrotation Zrotation
												JOINT RightHandIndex3
												{
													OFFSET -5.337898 0.000000 0.000000
													CHANNELS 3 Xrotation Yrotation Zrotation
													JOINT RightHandIndex4
													{
														OFFSET -4.409401 0.000000 0.000000
														CHANNELS 3 Xrotation Yrotation Zrotation
														End Site
														{
															OFFSET 0.000000 0.000000 0.000000
														}
													}
												}
											}
										}
										JOINT RightHandMiddle1
										{
											OFFSET -23.810097 0.000000 0.000000
											CHANNELS 3 Xrotation Yrotation Zrotation
											JOINT RightHandMiddle2
											{
												OFFSET -7.176498 0.000000 0.000000
												CHANNELS 3 Xrotation Yrotation Zrotation
												JOINT RightHandMiddle3
												{
													OFFSET -6.774902 0.000000 0.000000
													CHANNELS 3 Xrotation Yrotation Zrotation
													JOINT RightHandMiddle4
													{
														OFFSET -5.403328 0.000000 0.000000
														CHANNELS 3 Xrotation Yrotation Zrotation
														End Site
														{
															OFFSET 0.000000 0.000000 0.000000
														}
													}
												}
											}
										}
										JOINT RightHandRing1
										{
											OFFSET -22.908302 -0.839325 -6.020576
											CHANNELS 3 Xrotation Yrotation Zrotation
											JOINT RightHandRing2
											{
												OFFSET -6.337502 0.000000 0.000000
												CHANNELS 3 Xrotation Yrotation Zrotation
												JOINT RightHandRing3
												{
													OFFSET -5.779297 0.000000 0.000000
													CHANNELS 3 Xrotation Yrotation Zrotation
													JOINT RightHandRing4
													{
														OFFSET -4.965698 0.000000 0.000000
														CHANNELS 3 Xrotation Yrotation Zrotation
														End Site
														{
															OFFSET 0.000000 0.000000 0.000000
														}
													}
												}
											}
										}
										JOINT RightHandPinky1
										{
											OFFSET -20.037003 -1.530334 -10.950259
											CHANNELS 3 Xrotation Yrotation Zrotation
											JOINT RightHandPinky2
											{
												OFFSET -5.254700 0.000000 0.000000
												CHANNELS 3 Xrotation Yrotation Zrotation
												JOINT RightHandPinky3
												{
													OFFSET -4.810204 0.000000 0.000000
													CHANNELS 3 Xrotation Yrotation Zrotation
													JOINT RightHandPinky4
													{
														OFFSET -3.647202 0.000000 0.000000
														CHANNELS 3 Xrotation Yrotation Zrotation
														End Site
														{
															OFFSET 0.000000 0.000000 0.000000
														}
													}
												}
											}
										}
									}
								}
							}
						}
					}
				}
			}
		}
	}
	JOINT LeftUpLeg
	{
		OFFSET 15.427100 -6.655098 0.678600
		CHANNELS 3 Xrotation Yrotation Zrotation
		JOINT LeftLeg
		{
			OFFSET 4.081073 -39.591068 13.024000
			CHANNELS 3 Xrotation Yrotation Zrotation
			JOINT LeftFoot
			{
				OFFSET -4.081074 -37.707932 -15.979700
				CHANNELS 3 Xrotation Yrotation Zrotation
				JOINT LeftToeBase
				{
					OFFSET 5.346399 -15.068900 20.645000
					CHANNELS 3 Xrotation Yrotation Zrotation
					JOINT LeftToe_End
					{
						OFFSET 2.754700 0.931300 11.300900
						CHANNELS 3 Xrotation Yrotation Zrotation
						End Site
						{
							OFFSET 0.000000 0.000000 0.000000
						}
					}
				}
			}
		}
	}
	JOINT RightUpLeg
	{
		OFFSET -15.569500 -6.655098 0.678600
		CHANNELS 3 Xrotation Yrotation Zrotation
		JOINT RightLeg
		{
			OFFSET -4.081825 -39.591045 13.023800
			CHANNELS 3 Xrotation Yrotation Zrotation
			JOINT RightFoot
			{
				OFFSET 4.081824 -37.707954 -15.979600
				CHANNELS 3 Xrotation Yrotation Zrotation
				JOINT RightToeBase
				{
					OFFSET -5.346400 -15.068900 20.645000
					CHANNELS 3 Xrotation Yrotation Zrotation
					JOINT RightToe_End
					{
						OFFSET -2.754700 0.931300 11.300900
						CHANNELS 3 Xrotation Yrotation Zrotation
						End Site
						{
							OFFSET 0.000000 0.000000 0.000000
						}
					}
				}
			}
		}
	}
}
MOTION
Frames: 5
Frame Time: 0.016667
-0.848648 92.329315 14.221285 170.174846 -60.525448 167.200312 10.607196 -1.120324 -0.084403 -2.398480 -2.056338 2.718428 0.000000 0.000000 0.000000 -2.356987 -1.768256 2.869752 -3.888772 19.882604 3.910875 -0.526665 21.441454 -3.837597 0.000000 -0.000000 0.000000 0.705977 3.275486 -11.637330 0.000000 0.000000 0.000000 -4.210788 -8.950358 -59.610592 5.910698 -15.225796 -6.974015 -0.347263 0.742989 15.812387 -4.200346 10.157394 11.960011 6.085775 10.556453 -0.157858 1.966880 8.748026 4.028410 0.000000 -0.000000 -0.000000 2.131783 -0.392588 -13.293938 -0.004690 0.197233 -18.934956 0.035594 0.133859 -16.180974 -0.000001 0.000000 -0.000001 -1.008605 1.345618 -17.617325 0.069222 0.461238 -24.715289 0.023458 0.041114 -14.668716 -0.000001 0.000000 0.000001 -2.701876 4.172415 -17.242657 -0.035252 0.237670 -29.248608 0.095416 0.488128 -17.780449 0.000000 -0.000000 0.000003 -4.558668 4.536652 -26.611571 0.028889 0.178540 -30.761051 0.018640 0.101785 -18.036551 0.000001 -0.000000 -0.000000 0.703463 1.524160 16.490409 0.000000 0.000000 0.000000 17.133169 25.354787 44.976229 15.517510 24.279279 -5.951843 -24.526016 1.149788 -17.348503 -0.473528 -9.226564 -6.063030 7.388330 -11.608386 1.218092 1.114534 -8.666577 -5.080450 -0.000001 -0.000003 -0.000004 2.309461 -3.333406 8.546103 0.013955 -0.262610 18.590061 0.032968 -0.191424 14.524203 0.000000 0.000000 -0.000000 -1.980199 -5.331756 13.722410 0.108071 -0.649748 26.760633 0.021274 -0.055478 11.780369 -0.000001 0.000001 -0.000000 -4.943419 -9.642923 11.063726 -0.035473 -0.347585 32.710934 0.124829 -0.708766 15.585512 -0.000000 -0.000001 0.000000 -6.499158 -10.799793 23.445982 0.059697 -0.257507 34.143272 0.028360 -0.146676 15.143320 0.000002 -0.000002 0.000000 -1.061922 11.647443 21.975932 19.973797 19.700224 1.130868 -9.050256 9.656927 -28.331372 -7.172400 1.814742 -2.983427 -0.000001 -0.000002 -0.000000 -24.691542 -18.999850 -17.247044 19.232392 -15.514081 2.805448 1.425940 -1.599314 10.012726 -0.871122 -11.159890 6.053557 -0.000000 0.000000 0.000000 
-0.774160 91.925179 12.863733 170.501862 -58.762303 167.686362 10.500462 -1.245450 -0.179701 -2.304556 -2.290393 3.051407 0.000000 0.000000 0.000000 -2.253757 -1.967697 3.217102 -4.003680 18.093301 2.764203 -1.209541 19.087998 -2.532615 0.000000 -0.000000 -0.000000 0.768058 3.463244 -12.577563 0.000000 0.000000 0.000000 -3.044089 -9.903333 -59.428315 7.177367 -16.260082 -6.053566 -3.592289 1.052247 15.956463 -4.274160 10.467633 11.892684 5.838993 10.360603 0.041988 2.116440 8.726461 3.819014 0.000004 -0.000000 -0.000001 2.051723 -0.987332 -14.446070 -0.008075 0.184414 -19.251004 0.033843 0.123547 -16.750296 -0.000001 0.000000 0.000001 -0.876456 0.677746 -18.735050 0.063324 0.418329 -24.711925 0.023235 0.037750 -15.616568 0.000001 0.000002 -0.000002 -2.394409 3.204067 -18.922868 -0.032559 0.215865 -29.133407 0.094231 0.441439 -18.750174 -0.000000 0.000003 -0.000001 -4.267610 3.447763 -27.868213 0.025618 0.162047 -30.809832 0.017731 0.092724 -19.287203 -0.000001 -0.000001 0.000001 0.701269 1.355146 15.823434 0.000000 0.000000 0.000000 16.534484 25.640284 45.312708 15.474316 24.341843 -5.985882 -24.226865 1.766180 -17.288051 -0.475920 -9.284839 -6.057584 7.374047 -11.607348 1.199340 1.111007 -8.621556 -5.054191 -0.000000 -0.000001 -0.000007 2.297462 -3.261841 8.600796 0.014287 -0.263300 18.582590 0.033261 -0.192023 14.537660 0.000000 -0.000000 -0.000000 -1.979941 -5.246749 13.763552 0.107331 -0.646751 26.717311 0.021632 -0.055577 11.815553 0.000001 0.000001 0.000001 -4.937382 -9.523905 11.140125 -0.035777 -0.348077 32.646938 0.125621 -0.709554 15.611342 0.000001 -0.000000 -0.000002 -6.512586 -10.659434 23.476304 0.059910 -0.258267 34.082873 0.028734 -0.147312 15.182696 0.000001 -0.000000 -0.000002 -0.598303 11.254977 22.995533 21.251871 20.863800 1.071830 -7.140096 9.888738 -30.595040 -7.896815 1.479652 -2.532951 -0.000000 -0.000000 0.000000 -26.873470 -22.444413 -16.435955 20.329397 -11.988619 1.828164 0.958696 -0.299196 8.449910 -0.662051 -10.704137 6.053028 0.000000 -0.000001 0.000001 
-0.690617 91.502785 11.557287 170.961274 -57.118369 168.209569 10.602665 -1.377824 -0.088138 -2.282224 -2.483316 3.172532 0.000000 0.000000 0.000000 -2.225453 -2.139741 3.353370 -4.312742 16.256591 2.263038 -1.323580 17.025317 -2.023882 0.000000 -0.000000 -0.000000 0.793939 3.860539 -12.834924 0.000000 0.000000 0.000000 -2.590068 -10.725959 -59.685301 6.796633 -15.986953 -5.978551 -4.516851 0.869627 16.178124 -4.350488 10.787271 11.824440 5.585219 10.158485 0.246098 2.270165 8.703491 3.603661 -0.000002 0.000001 0.000000 1.949229 -1.594985 -15.631610 -0.011639 0.171280 -19.576154 0.031689 0.112905 -17.335952 0.000001 0.000001 0.000001 -0.762993 -0.013260 -19.880401 0.057191 0.374160 -24.708061 0.022748 0.033633 -16.592170 0.000001 -0.000000 -0.000004 -2.128875 2.191439 -20.636095 -0.029291 0.193457 -29.015572 0.090467 0.393543 -19.748471 0.000001 -0.000001 0.000002 -4.009865 2.316273 -29.144243 0.022211 0.145146 -30.860974 0.016423 0.083391 -20.575206 0.000002 0.000000 -0.000005 0.708323 1.125612 15.555418 0.000000 0.000000 0.000000 16.276312 26.099174 45.427643 15.667822 24.549513 -6.236646 -23.970032 2.169548 -17.977333 -0.478566 -9.343082 -6.052148 7.359767 -11.606343 1.180569 1.107549 -8.576585 -5.028101 -0.000000 0.000002 -0.000003 2.285635 -3.191676 8.655812 0.014421 -0.263765 18.575615 0.033462 -0.192410 14.551489 0.000000 -0.000001 -0.000001 -1.980065 -5.161936 13.801838 0.106583 -0.643610 26.672602 0.021856 -0.055548 11.848851 0.000001 0.000000 -0.000001 -4.933562 -9.403495 11.210514 -0.036021 -0.348471 32.579183 0.126242 -0.710005 15.633337 0.000000 0.000000 0.000000 -6.528592 -10.515625 23.497389 0.059937 -0.258739 34.016084 0.028939 -0.147596 15.216084 0.000000 0.000000 -0.000001 -0.419796 11.277975 24.217161 22.748893 21.374536 0.934418 -4.999005 9.835976 -32.761218 -8.801177 1.105667 -1.740821 0.000000 -0.000003 -0.000000 -28.363040 -24.647721 -15.537357 21.572309 -9.468596 1.038212 0.398506 0.703077 7.177688 -0.484704 -10.324498 5.923326 -0.000000 0.000000 -0.000000 
-0.596105 91.082191 10.147683 171.938524 -55.325273 169.070978 11.006284 -1.444386 0.491813 -2.311409 -2.458904 2.656137 0.000000 0.000000 0.000000 -2.266519 -2.142669 2.841963 -4.723529 14.069406 3.187259 -1.044573 15.252412 -2.299040 0.000000 0.000000 -0.000000 0.698515 3.486606 -11.418157 0.000000 0.000000 0.000000 -2.788106 -10.705274 -61.013588 6.324328 -14.736753 -5.900915 -4.856893 0.224948 16.321936 -4.428134 11.111382 11.756508 5.328289 9.952998 0.451407 2.425799 8.679524 3.385524 0.000000 -0.000000 -0.000001 1.824247 -2.206775 -16.833158 -0.015534 0.158001 -19.905603 0.029270 0.102150 -17.929359 -0.000000 -0.000001 0.000002 -0.671712 -0.717656 -21.035714 0.051048 0.329383 -24.704159 0.022078 0.029503 -17.580617 -0.000000 -0.000000 -0.000002 -1.913177 1.149654 -22.356124 -0.025951 0.170692 -28.896666 0.084925 0.345210 -20.760310 -0.000002 -0.000002 0.000005 -3.792517 1.158800 -30.419713 0.018543 0.127887 -30.913522 0.014605 0.074069 -21.880748 0.000000 -0.000001 -0.000001 0.748263 0.713208 16.348353 0.000000 0.000000 0.000000 16.070872 26.382584 45.353532 15.509620 24.754778 -6.377424 -23.526484 2.543094 -18.509816 -0.481013 -9.401259 -6.046677 7.345467 -11.605469 1.161680 1.104114 -8.531603 -5.001964 -0.000003 0.000000 -0.000003 2.274402 -3.123224 8.711385 0.014460 -0.264002 18.568810 0.033578 -0.192446 14.565409 -0.000000 0.000001 -0.000000 -1.980348 -5.077275 13.837595 0.105878 -0.640506 26.625887 0.021954 -0.055371 11.880488 0.000000 -0.000002 0.000000 -4.930958 -9.281439 11.275154 -0.036156 -0.348597 32.507462 0.126637 -0.710120 15.651563 0.000001 0.000001 0.000001 -6.546913 -10.368721 23.509610 0.059893 -0.258976 33.943342 0.029051 -0.147629 15.243476 -0.000000 -0.000000 0.000001 0.033160 11.861605 25.651011 24.093463 21.493946 0.727512 -2.701360 9.566173 -35.067585 -10.098678 0.753335 -1.726354 -0.000000 0.000001 -0.000000 -28.687874 -24.662628 -14.240739 22.903639 -8.243431 0.718511 0.013415 1.020449 6.522549 -0.370731 -10.312307 5.945162 0.000000 -0.000001 0.000000 
-0.539571 90.682457 8.619595 172.708491 -53.327409 169.639455 11.163885 -1.459093 0.788440 -2.184792 -2.521676 2.559258 0.000000 0.000000 0.000000 -2.144792 -2.198684 2.749638 -4.958435 12.324793 3.200034 -1.001340 13.447503 -1.793007 -0.000000 -0.000000 0.000000 0.681289 3.502401 -11.167985 0.000000 0.000000 0.000000 -2.297078 -10.737599 -61.310401 5.153912 -14.651644 -6.270500 -4.855085 0.150833 16.656326 -4.505801 11.435057 11.689743 5.072018 9.747342 0.654775 2.580966 8.654807 3.167927 0.000002 0.000002 0.000001 1.678251 -2.813605 -18.033748 -0.019558 0.144789 -20.234386 0.026648 0.091516 -18.521648 -0.000001 -0.000000 -0.000002 -0.604431 -1.425359 -22.184603 0.044891 0.284747 -24.700256 0.021303 0.025380 -18.567246 0.000002 0.000000 0.000001 -1.752140 0.095681 -24.058679 -0.022573 0.148073 -28.777978 0.077725 0.297142 -21.770309 0.000000 -0.000000 -0.000000 -3.619687 -0.007473 -31.676327 0.014845 0.110734 -30.966063 0.012426 0.064849 -23.183848 -0.000001 -0.000002 0.000002 0.766249 0.445081 16.434287 0.000000 0.000000 0.000000 15.582539 26.635747 45.617112 14.845650 25.297033 -6.336980 -22.933926 2.583466 -18.689453 -0.483538 -9.459370 -6.041365 7.331284 -11.604598 1.142972 1.100721 -8.486788 -4.975977 0.000000 0.000001 -0.000003 2.263471 -3.056041 8.767309 0.014330 -0.263854 18.562352 0.033541 -0.192278 14.579654 -0.000001 -0.000001 -0.000000 -1.980765 -4.992758 13.870936 0.105130 -0.637370 26.577555 0.021908 -0.055152 11.910509 -0.000000 -0.000000 0.000000 -4.929558 -9.158293 11.334410 -0.036278 -0.348488 32.432115 0.126877 -0.709930 15.666222 0.000000 -0.000001 0.000001 -6.567401 -10.218620 23.513234 0.059701 -0.258933 33.864809 0.029001 -0.147269 15.265302 0.000001 0.000001 -0.000001 0.430571 12.641407 27.251750 25.376677 21.568226 0.477999 -0.130038 9.049130 -37.586702 -12.874227 0.292295 -2.173240 -0.000000 0.000000 -0.000000 -28.574684 -23.657964 -12.569084 24.128115 -7.626613 0.629117 -0.289913 1.018168 6.086411 -0.291577 -10.385481 5.745138 0.000000 0.000000 -0.000000 
